<svg viewBox="0 0 1680 1050" fill="none" xmlns="http://www.w3.org/2000/svg">
<g opacity="0.66" clip-path="url(#clip0)">
<path opacity="0.5" fill-rule="evenodd" clip-rule="evenodd" d="M982.501 -351C598.939 -351 288.001 -40.0616 288.001 343.5C288.001 727.062 598.939 1038 982.501 1038C1366.06 1038 1677 727.062 1677 343.5C1677 -40.0618 1366.06 -351 982.501 -351Z" fill="url(#paint0_radial)"/>
<path fill-rule="evenodd" clip-rule="evenodd" d="M721.001 -1066C320.594 -1066 -3.99912 -741.406 -3.99909 -341C-3.99905 59.4066 320.594 384 721.001 384C1121.41 384 1446 59.4064 1446 -341C1446 -741.406 1121.41 -1066 721.001 -1066Z" fill="url(#paint1_radial)"/>
<path opacity="0.1" fill-rule="evenodd" clip-rule="evenodd" d="M796.501 237C354.397 237 -3.99913 595.396 -3.99909 1037.5C-3.99905 1479.6 354.397 1838 796.501 1838C1238.6 1838 1597 1479.6 1597 1037.5C1597 595.396 1238.6 237 796.501 237Z" fill="url(#paint2_radial)"/>
<path opacity="0.01" fill-rule="evenodd" clip-rule="evenodd" d="M1202.78 1346.85C1123.23 1334.96 1161.1 1295.67 1099.3 1330.73C1098.31 1331.29 1096.96 1331.28 1095.96 1330.73C1058.34 1309.85 1056.76 1289.23 1032.17 1247.36C997.089 1187.65 988.971 1191.75 971.183 1139C940.027 1046.61 640.243 782.659 647.999 683.895C654.783 597.516 961.066 551.344 1015 490.395C1068.33 430.129 1249.58 576.161 1378.62 481.978C1454.45 426.63 1522.09 541.472 1578.65 521.36C1635.21 501.249 1684.24 613.119 1684.24 613.119L1677 1554.7C1677 1554.7 1602.34 1586.51 1572.55 1602.24C1528.81 1625.34 1491.42 1660.01 1441.17 1662.11C1411.86 1663.33 1382.3 1664.79 1353.19 1660.69C1338.39 1658.6 1312.6 1634.34 1303.57 1623.22C1270.48 1582.49 1240.03 1519.59 1249.58 1461.92C1253.16 1440.34 1262.43 1420.47 1268.86 1399.75C1268.86 1399.75 1282.33 1358.73 1202.78 1346.85Z" fill="#AEB8F0"/>
<path opacity="0.02" fill-rule="evenodd" clip-rule="evenodd" d="M248.578 1809.49C207.913 1803.76 -33.4995 1703.5 -33.4995 1703.5L-23.4995 1149.5C-23.4995 1149.5 275.716 1148.43 339.248 1104.67C405.864 1058.79 476.224 1014.94 552.029 988.362C580.978 978.211 621.09 970.945 647.936 967.113C657.155 965.797 681.597 961.214 692.106 971.856C740.446 1020.81 780.464 1140.5 782.198 1199.06C782.812 1219.81 781.705 1240.6 782.198 1261.36C784.377 1353.06 1260.01 1351.11 1248.5 1442.5C1246.02 1462.2 1017.57 1571.6 1013.5 1591C1003.38 1639.29 750.288 1693 738.409 1740.83C718.794 1819.82 663.264 1957.55 589.264 1996.92C563.415 2010.67 535.783 2020.27 509.613 2033.31C471.184 2052.46 438.34 2081.19 394.196 2082.93C368.448 2083.95 342.475 2085.16 316.907 2081.76C303.901 2080.03 281.251 2059.92 273.314 2050.7C244.25 2016.94 217.492 1964.8 225.889 1916.99C229.032 1899.1 237.176 1882.63 242.819 1865.45L248.578 1809.49Z" fill="#7380C9"/>
<path opacity="0.02" fill-rule="evenodd" clip-rule="evenodd" d="M188.617 698.429C138.254 710.454 18.687 1064.29 -27 1052.5C-70.4469 1041.29 -10.4278 657.481 -64 635.257L-64.0001 74.0935C-16.0556 14.2732 8.49838 -17.3077 9.66177 -20.6497C20.7016 -52.3637 24.0222 -79.7417 42.2553 -110.881C96.9671 -204.319 162.87 -296.387 242.214 -379.658C272.515 -411.458 457.636 -408.162 476.454 -407.668C563.016 -405.397 677.88 -337 711.983 -289.19C724.072 -272.243 734.044 -253.888 745.985 -236.84C798.729 -161.539 859.692 -89.6244 895.317 -3.58715C902.997 14.9594 908.234 34.7272 913.786 54.2936C927.61 103.008 942.039 151.489 953.437 201.231C972.258 283.365 978.675 443.733 908.544 536.297C884.047 568.631 855.077 598.914 829.793 630.908C792.667 677.887 767.686 648.5 713.984 685.449C682.661 707 651.165 728.894 617.656 746.593C600.61 755.597 561.594 756.906 546.736 755.54C492.327 750.535 430.746 728.234 415.052 681.316C405.996 654.242 203.083 694.975 188.617 698.429Z" fill="#7380C9"/>
<path opacity="0.02" fill-rule="evenodd" clip-rule="evenodd" d="M1325.01 -591.908C1324.82 -593.052 1325.2 -594.428 1325.93 -595.328C1353.51 -629.153 1370.99 -626.191 1412.36 -642.05C1471.36 -664.671 1470.19 -673.877 1518.7 -680.367C1575.33 -687.945 1629.1 -686.478 1680 -675.966L1680 361.508C1669.43 358.558 1661.47 356.446 1656.14 355.174C1563.95 333.189 1538.05 301.507 1450.44 263.683C1431.56 255.53 1343.79 261.468 1325.7 251.551C1280.67 226.862 1235.37 202.638 1191.34 176.026C1118.64 132.086 1017.92 117.713 1001.71 21.0894C996.043 -12.6618 975.666 -134.442 970.813 -168.377C963.687 -218.207 945.254 -264.104 957.278 -315.93C964.292 -346.159 971.183 -376.701 982.545 -405.541C988.325 -420.212 1015.45 -441.187 1027.13 -447.956C1069.88 -472.745 1130.25 -489.935 1175.34 -467.383C1192.21 -458.942 1337.09 -520.976 1325.01 -591.908Z" fill="#7380C9"/>
<path opacity="0.02" fill-rule="evenodd" clip-rule="evenodd" d="M246.061 1263.58L264.3 1169.36L350 1134.63L288.783 1031.5L218.702 993.478L160.438 926.861L99.7072 828.219L58.6243 652.795L106.462 448.557L46.2119 211.217L-3 63L-2.99988 1504L109.086 1447.89L246.061 1263.58Z" fill="#4D53DD"/>
<path opacity="0.02" fill-rule="evenodd" clip-rule="evenodd" d="M385.851 407.895C382.877 386.73 483.111 252.434 686.553 5.00774L2317.79 5.00781C2317.79 5.00781 2007.29 70.008 1913.29 99.508C1819.29 129.008 1734.79 264.008 1629.79 264.008C1524.79 264.008 1483.21 290.87 1439 298.689C1394.79 306.508 1267.43 492.732 1236.36 531.12C1205.29 569.508 1178.29 666.508 1178.29 666.508L956.743 573.523L922.185 617.157L1167.24 686.599L1082.41 718.008L780.805 675.605C520.478 518.297 388.826 429.061 385.851 407.895Z" fill="#4D53DD"/>
<path opacity="0.02" fill-rule="evenodd" clip-rule="evenodd" d="M-3.99951 147C-3.99951 147 665.5 44.4995 733 133.5C800.5 222.5 714.023 172 562 213.5C409.977 255 326.126 459.755 326.126 459.755C326.126 459.755 257.322 658.587 409.977 678.039C562.633 697.491 795.496 543.5 848.536 625.298C901.576 707.096 684.24 895.335 681.651 953.241C679.063 1011.15 1002.87 1357.54 1036.5 1445.5C1070.13 1533.46 347.882 1536.24 192.64 1471.73C37.3978 1407.22 -3.99941 1253.19 -3.99941 1253.19L-3.99951 147Z" fill="#4D53DD"/>
</g>
<defs>
<radialGradient id="paint0_radial" cx="0" cy="0" r="1" gradientUnits="userSpaceOnUse" gradientTransform="translate(982.501 343.5) rotate(-90) scale(694.5)">
<stop stop-color="#272646"/>
<stop offset="1" stop-opacity="0.01"/>
</radialGradient>
<radialGradient id="paint1_radial" cx="0" cy="0" r="1" gradientUnits="userSpaceOnUse" gradientTransform="translate(721.001 -341) rotate(-89.256) scale(725.061)">
<stop stop-color="#23203F"/>
<stop offset="1" stop-color="#161724" stop-opacity="0.01"/>
</radialGradient>
<radialGradient id="paint2_radial" cx="0" cy="0" r="1" gradientUnits="userSpaceOnUse" gradientTransform="translate(796.501 1037.5) rotate(-90) scale(800.5)">
<stop stop-color="#5048FF"/>
<stop offset="1" stop-color="#171920" stop-opacity="0.01"/>
</radialGradient>
<clipPath id="clip0">
<rect width="1680" height="1637" fill="white"/>
</clipPath>
</defs>
</svg>