<svg id='symbol-search' width="15" height="15" viewBox="0 0 15 15" fill="none" xmlns="http://www.w3.org/2000/svg">
<path fill-rule="evenodd" clip-rule="evenodd" d="M9.47657 10.8907C8.49574 11.5892 7.29585 12 6 12C2.68629 12 0 9.31371 0 6C0 2.68629 2.68629 0 6 0C9.31371 0 12 2.68629 12 6C12 7.29581 11.5892 8.49569 10.8908 9.4765L13.9498 12.5355C14.3403 12.926 14.3403 13.5592 13.9498 13.9497C13.5592 14.3402 12.9261 14.3402 12.5355 13.9497L9.47657 10.8907ZM10 6C10 8.20914 8.20914 10 6 10C3.79086 10 2 8.20914 2 6C2 3.79086 3.79086 2 6 2C8.20914 2 10 3.79086 10 6Z" fill="currentcolor"/>
</svg>
