<svg width="20" height="20" viewBox="0 0 20 20" fill="none" xmlns="http://www.w3.org/2000/svg">
<path d="M3.95505 5.67262C3.17173 5.31791 3.17173 4.20543 3.95505 3.85072L9.58771 1.30008C9.8499 1.18135 10.1505 1.18135 10.4127 1.30008L16.0454 3.85072C16.8287 4.20543 16.8287 5.31791 16.0454 5.67262L10.4127 8.22326C10.1505 8.34199 9.8499 8.34199 9.58771 8.22326L3.95505 5.67262Z" fill="#FFB4B4"/>
<path fill-rule="evenodd" clip-rule="evenodd" d="M9.5 9.88065C9.5 9.48799 9.2702 9.13167 8.91251 8.96969L3.35587 6.45348C2.6939 6.15372 1.94336 6.63776 1.94336 7.36443V14.5939C1.94336 14.9866 2.17316 15.3429 2.53085 15.5049L8.08749 18.0211C8.74946 18.3209 9.5 17.8368 9.5 17.1102V9.88065ZM11.0875 8.96989C10.7298 9.13187 10.5 9.48819 10.5 9.88085V17.1104C10.5 17.837 11.2505 18.3211 11.9125 18.0213L17.4696 15.5049C17.8273 15.3429 18.0571 14.9866 18.0571 14.5939V7.36443C18.0571 6.63776 17.3065 6.15372 16.6446 6.45348L11.0875 8.96989ZM10.0003 18.8872C10.0004 18.8872 10.0004 18.887 10.0002 18.887V18.887C10.0001 18.887 10 18.8872 10.0002 18.8872V18.8872C10.0002 18.8872 10.0002 18.8872 10.0003 18.8872V18.8872Z" fill="#F57474"/>
</svg>
